Coordinates
nRows=254
nColumns=2
inDegrees=yes
endheader
time	ankle_angle_r	
7.01915	 18.585156	
7.05242	 18.578490	
7.08569	 18.565269	
7.11895	 18.548688	
7.15222	 18.542780	
7.18548	 18.554557	
7.21875	 18.575671	
7.25202	 18.597583	
7.28528	 18.619673	
7.31855	 18.640435	
7.35181	 18.656512	
7.38508	 18.667199	
7.41835	 18.669478	
7.45161	 18.661359	
7.48488	 18.651241	
7.51815	 18.649311	
7.55141	 18.657309	
7.58468	 18.671275	
7.61794	 18.683535	
7.65121	 18.688002	
7.68448	 18.686980	
7.71774	 18.683936	
7.75101	 18.679901	
7.78427	 18.679883	
7.81754	 18.685068	
7.85081	 18.687581	
7.88407	 18.684442	
7.91734	 18.681434	
7.9506	 18.683546	
7.98387	 18.690721	
8.01714	 18.697685	
8.0504	 18.699839	
8.08367	 18.700142	
8.11694	 18.702053	
8.1502	 18.702180	
8.18347	 18.694812	
8.21673	 18.675582	
8.25	 18.647361	
8.28327	 18.624033	
8.31653	 18.614886	
8.3498	 18.616348	
8.38306	 18.625287	
8.41633	 18.641364	
8.4496	 18.658780	
8.48286	 18.668958	
8.51613	 18.669929	
8.5494	 18.665815	
8.58266	 18.657590	
8.61593	 18.647150	
8.64919	 18.642008	
8.68246	 18.642461	
8.71573	 18.641974	
8.74899	 18.637881	
8.78226	 18.626694	
8.81552	 18.611776	
8.84879	 18.612298	
8.88206	 18.632674	
8.91532	 18.647711	
8.94859	 18.641810	
8.98185	 18.627333	
9.01512	 18.618448	
9.04839	 18.617977	
9.08165	 18.622510	
9.11492	 18.628769	
9.14819	 18.641374	
9.18145	 18.662956	
9.21472	 18.680155	
9.24798	 18.679635	
9.28125	 18.667001	
9.31452	 18.656598	
9.34778	 18.654908	
9.38105	 18.655586	
9.41431	 18.647182	
9.44758	 18.634120	
9.48085	 18.635264	
9.51411	 18.654478	
9.54738	 18.679883	
9.58065	 18.701937	
9.61391	 18.712318	
9.64718	 18.709710	
9.68044	 18.705769	
9.71371	 18.707860	
9.74698	 18.711797	
9.78024	 18.713903	
9.81351	 18.715908	
9.84677	 18.720994	
9.88004	 18.728497	
9.91331	 18.733199	
9.94657	 18.732549	
9.97984	 18.728978	
10.0131	 18.725304	
10.0464	 18.722924	
10.0796	 18.720694	
10.1129	 18.716689	
10.1462	 18.711861	
10.1794	 18.707370	
10.2127	 18.703760	
10.246	 18.703024	
10.2792	 18.704705	
10.3125	 18.704750	
10.3458	 18.697225	
10.379	 18.674673	
10.4123	 18.638281	
10.4456	 18.604880	
10.4788	 18.590408	
10.5121	 18.593171	
10.5454	 18.600540	
10.5786	 18.601183	
10.6119	 18.591938	
10.6452	 18.580924	
10.6784	 18.577624	
10.7117	 18.583897	
10.745	 18.595959	
10.7782	 18.605670	
10.8115	 18.607765	
10.8448	 18.605210	
10.878	 18.598777	
10.9113	 18.586611	
10.9446	 18.575613	
10.9778	 18.574886	
11.0111	 18.585736	
11.0444	 18.605211	
11.0776	 18.627255	
11.1109	 18.644447	
11.1442	 18.652751	
11.1774	 18.650255	
11.2107	 18.640880	
11.244	 18.637143	
11.2772	 18.645800	
11.3105	 18.659178	
11.3437	 18.667610	
11.377	 18.670737	
11.4103	 18.674685	
11.4435	 18.683128	
11.4768	 18.692368	
11.5101	 18.695754	
11.5433	 18.690995	
11.5766	 18.682435	
11.6099	 18.679442	
11.6431	 18.687607	
11.6764	 18.700847	
11.7097	 18.711070	
11.7429	 18.717060	
11.7762	 18.718897	
11.8095	 18.717611	
11.8427	 18.716221	
11.876	 18.714045	
11.9093	 18.708968	
11.9425	 18.702351	
11.9758	 18.695645	
12.0091	 18.689385	
12.0423	 18.685490	
12.0756	 18.684726	
12.1089	 18.686198	
12.1421	 18.686080	
12.1754	 18.675233	
12.2087	 18.653007	
12.2419	 18.634576	
12.2752	 18.630225	
12.3085	 18.634680	
12.3417	 18.639899	
12.375	 18.643745	
12.4083	 18.646764	
12.4415	 18.645930	
12.4748	 18.639806	
12.5081	 18.638225	
12.5413	 18.648533	
12.5746	 18.657973	
12.6079	 18.652602	
12.6411	 18.640600	
12.6744	 18.634991	
12.7077	 18.634976	
12.7409	 18.639408	
12.7742	 18.652308	
12.8075	 18.668703	
12.8407	 18.673384	
12.874	 18.658518	
12.9073	 18.636505	
12.9405	 18.623442	
12.9738	 18.620027	
13.0071	 18.622368	
13.0403	 18.628779	
13.0736	 18.634604	
13.1069	 18.641046	
13.1401	 18.655538	
13.1734	 18.675559	
13.2067	 18.691349	
13.2399	 18.701631	
13.2732	 18.710035	
13.3065	 18.713192	
13.3397	 18.704678	
13.373	 18.689527	
13.4062	 18.683359	
13.4395	 18.692683	
13.4728	 18.708764	
13.506	 18.719425	
13.5393	 18.717310	
13.5726	 18.706098	
13.6058	 18.698503	
13.6391	 18.699043	
13.6724	 18.700646	
13.7056	 18.700146	
13.7389	 18.699584	
13.7722	 18.697878	
13.8054	 18.693766	
13.8387	 18.689317	
13.872	 18.687896	
13.9052	 18.691310	
13.9385	 18.695903	
13.9718	 18.696513	
14.005	 18.694004	
14.0383	 18.691535	
14.0716	 18.691055	
14.1048	 18.693749	
14.1381	 18.695741	
14.1714	 18.690791	
14.2046	 18.676984	
14.2379	 18.656813	
14.2712	 18.635499	
14.3044	 18.614916	
14.3377	 18.595484	
14.371	 18.585251	
14.4042	 18.589120	
14.4375	 18.599595	
14.4708	 18.608508	
14.504	 18.611349	
14.5373	 18.604359	
14.5706	 18.591456	
14.6038	 18.585033	
14.6371	 18.591709	
14.6704	 18.606797	
14.7036	 18.623382	
14.7369	 18.637993	
14.7702	 18.651830	
14.8034	 18.667096	
14.8367	 18.680963	
14.87	 18.689538	
14.9032	 18.693032	
14.9365	 18.694195	
14.9698	 18.695927	
15.003	 18.698529	
15.0363	 18.701085	
15.0696	 18.705506	
15.1028	 18.712439	
15.1361	 18.717518	
15.1694	 18.718228	
15.2026	 18.716863	
15.2359	 18.715503	
15.2692	 18.714887	
15.3024	 18.714083	
15.3357	 18.712469	
15.369	 18.715249	
15.4022	 18.727695	
15.4355	 18.747065	
